<?xml version="1.0" encoding="UTF-8"?>
<svg id="Layer_1" data-name="Layer 1" xmlns="http://www.w3.org/2000/svg" viewBox="0 0 736.11 159.08">
  <defs>
    <style>
      .cls-1 {
        fill: #2f3763;
      }

      .cls-2 {
        fill: #f99e24;
      }
    </style>
  </defs>
  <rect class="cls-1" width="736.11" height="159.08" rx="30.91" ry="30.91"/>
  <g>
    <path class="cls-2" d="M302.35,66.24c0-14.5-11.8-26.3-26.3-26.3h-41.54v80h15.2v-27.4h15.74l22.83,27.4h19.79l-23.89-28.67c10.78-3.45,18.17-13.53,18.17-25.03ZM287.16,66.24c0,6.12-4.98,11.1-11.1,11.1h-26.34v-22.2h26.34c6.12,0,11.1,4.98,11.1,11.1Z"/>
    <polygon class="cls-2" points="349.53 71.29 326.99 39.94 308.27 39.94 341.93 86.76 341.93 119.94 357.13 119.94 357.13 86.76 390.79 39.94 372.07 39.94 349.53 71.29"/>
    <rect class="cls-2" x="663.12" y="39.94" width="13.2" height="80"/>
    <rect class="cls-2" x="493.06" y="119.94" width="57.8" height="13.2"/>
    <g>
      <polygon class="cls-2" points="169.41 107.07 169.41 52.81 217.58 52.81 217.58 39.94 169.41 39.94 169.41 39.94 156.21 39.94 156.21 39.94 156.21 52.81 156.21 107.07 156.21 119.94 169.41 119.94 220.9 119.94 220.9 107.07 169.41 107.07"/>
      <path class="cls-2" d="M192.35,70.1c-5.43,0-9.84,4.42-9.84,9.85s4.42,9.85,9.84,9.85,9.85-4.42,9.85-9.85-4.42-9.85-9.85-9.85Z"/>
    </g>
    <rect class="cls-2" x="59.8" y="39.94" width="15.1" height="80"/>
    <polyline class="cls-2" points="82.25 86.65 120.49 119.94 140.6 119.94 94.64 79.94 140.6 39.94 120.49 39.94 82.33 73.16"/>
    <rect class="cls-2" x="400.25" y="39.94" width="15.1" height="80"/>
    <polyline class="cls-2" points="422.7 86.65 460.95 119.94 481.06 119.94 435.1 79.94 481.06 39.94 460.95 39.94 422.79 73.16"/>
    <g>
      <path class="cls-2" d="M605.6,86.27c-5.43,0-9.84,4.42-9.84,9.85s4.42,9.85,9.84,9.85,9.85-4.42,9.85-9.85-4.42-9.85-9.85-9.85Z"/>
      <path class="cls-2" d="M598.37,39.95c-11.87,26.65-23.75,53.31-35.62,79.96l14.39.03,28.46-63.75,28.44,63.71,14.42.04c-11.88-26.67-23.77-53.33-35.65-80"/>
    </g>
  </g>
</svg>